<svg version="1.2" xmlns="http://www.w3.org/2000/svg" viewBox="0 0 1672 1349" width="992" height="800">
	<title>AdobeStock_446148873-pdf</title>
	<defs>
		<clipPath clipPathUnits="userSpaceOnUse" id="cp1">
			<path d="m-1912-926h5914v3180h-5914z"/>
		</clipPath>
	</defs>
	<style>
		.s0 { fill: #06d2dd } 
		.s1 { fill: #9c6cfe } 
		.s2 { fill: #352cab } 
	</style>
	<g id="Page 1" clip-path="url(#cp1)">
		<path id="Path 7" class="s0" d="m998.6 846.8v195c0 11.4 6.4 21.1 16.8 25.7 10.4 4.6 21.9 2.8 30.3-4.8l235.6-213.4v88.6c0 130.6-106.9 237.5-237.6 237.5h-450.5c-130.7 0-237.6-106.9-237.6-237.5v-131.1c0-69.6 30.3-132.4 78.4-175.9l0.6-0.6 0.1-0.1 101.1-91.6v42.4c0 130.7 106.9 237.6 237.6 237.6h197.1c15.5 0 28.1 12.7 28.1 28.2z"/>
		<path id="Path 8" class="s1" d="m846.6 569.2c-15.5 0-28.2-12.6-28.2-28.1v-195c0-11.4-6.3-21.2-16.7-25.8-10.4-4.6-21.9-2.8-30.3 4.9l-235.6 213.4v-88.6c0-130.7 106.9-237.6 237.6-237.6h450.5c130.7 0 237.6 106.9 237.6 237.6v131c0 69.6-30.3 132.4-78.4 176l-0.6 0.5-0.1 0.2-101.1 91.6v-42.5c0-130.7-106.9-237.6-237.6-237.6z"/>
		<path id="Path 9" class="s2" d="m1280.3 850.3l-235.6 213.4c-8.4 7.6-19.9 9.4-30.3 4.8-10.4-4.6-16.8-14.3-16.8-25.7v-195c0-15.5-12.6-28.2-28.1-28.2h-197.1c-130.7 0-237.6-106.9-237.6-237.6v-42.4l235.6-213.4c8.4-7.7 19.9-9.5 30.3-4.9 10.4 4.6 16.7 14.4 16.7 25.8v195c0 15.5 12.7 28.1 28.2 28.1h197.1c130.7 0 237.6 106.9 237.6 237.6z"/>
	</g>
</svg>